<?xml version="1.0" encoding="UTF-8" standalone="no"?>
<!DOCTYPE svg PUBLIC "-//W3C//DTD SVG 1.1//EN"
 "http://www.w3.org/Graphics/SVG/1.1/DTD/svg11.dtd">
<!-- Generated by graphviz version 2.44.2~dev.20201112.1525 (20201112.1525)
 -->
<!-- Pages: 1 -->
<svg width="2165pt" height="356pt"
 viewBox="0.00 0.00 2164.75 356.00" xmlns="http://www.w3.org/2000/svg" xmlns:xlink="http://www.w3.org/1999/xlink">
<g id="graph0" class="graph" transform="scale(1 1) rotate(0) translate(4 352)">
<polygon fill="white" stroke="transparent" points="-4,4 -4,-352 2160.75,-352 2160.75,4 -4,4"/>
<!-- node0 -->
<g id="node1" class="node">
<title>node0</title>
<polygon fill="grey" stroke="transparent" points="72.75,-133.5 72.75,-152.5 715.75,-152.5 715.75,-133.5 72.75,-133.5"/>
<text text-anchor="start" x="245.25" y="-140.3" font-family="DejaVu Sans" font-weight="bold" font-size="14.00">fd363c8b4e6ca42c1b66a902fec720eb2b4</text>
<g id="a_node1_0"><a xlink:href="fd363c8b4e6ca42c1b66a902fec720eb2b4" xlink:title="&lt;TABLE&gt;">
<polygon fill="#eeeeee" stroke="transparent" points="72.75,-118.5 72.75,-133.5 715.75,-133.5 715.75,-118.5 72.75,-118.5"/>
<text text-anchor="start" x="305.75" y="-123.5" font-family="DejaVu Sans" font-size="10.00" fill="#6666ff">fd363c8b4e6ca42c1b66a902fec720eb2b4</text>
</a>
</g>
<text text-anchor="start" x="74.75" y="-105.3" font-family="DejaVu Sans" font-size="14.00">ns1:has_identifier_GID&#45;39085_Type&#45;55936</text>
<text text-anchor="start" x="346.75" y="-105.3" font-family="DejaVu Sans" font-size="14.00">&quot;BF7165BC&#45;CCD9&#45;4CE4&#45;944F&#45;E3C9786B7BF3&quot;^^xsd:string</text>
<polygon fill="none" stroke="#666666" points="71.25,-99 71.25,-154 716.25,-154 716.25,-99 71.25,-99"/>
</g>
<!-- node1 -->
<g id="node2" class="node">
<title>node1</title>
<polygon fill="grey" stroke="transparent" points="900.75,-20 900.75,-39 1135.75,-39 1135.75,-20 900.75,-20"/>
<text text-anchor="start" x="948.75" y="-26.8" font-family="DejaVu Sans" font-weight="bold" font-size="14.00">Patient_GID&#45;55936</text>
<g id="a_node2_1"><a xlink:href="http://knowdive.disi.unitn.it/etype#Patient_GID-55936" xlink:title="&lt;TABLE&gt;">
<polygon fill="#eeeeee" stroke="transparent" points="900.75,-5 900.75,-20 1135.75,-20 1135.75,-5 900.75,-5"/>
<text text-anchor="start" x="902.75" y="-10" font-family="DejaVu Sans" font-size="10.00" fill="#6666ff">http://knowdive.disi.unitn.it/etype#Patient_GID&#45;55936</text>
</a>
</g>
<polygon fill="none" stroke="#666666" points="899.25,-4 899.25,-40 1136.25,-40 1136.25,-4 899.25,-4"/>
</g>
<!-- node0&#45;&gt;node1 -->
<g id="edge1" class="edge">
<title>node0:&#45;&gt;node1:</title>
<path fill="none" stroke="BLACK" d="M579.7,-94.95C676.37,-79.08 792.44,-60.01 880.81,-45.49"/>
<polygon fill="BLACK" stroke="BLACK" points="881.6,-48.91 890.9,-43.84 880.47,-42 881.6,-48.91"/>
<text text-anchor="start" x="780.75" y="-66.8" font-family="Times New Roman,serif" font-size="14.00"> </text>
<text text-anchor="start" x="784.75" y="-66.8" font-family="Times New Roman,serif" font-size="10.00" fill="#336633">rdf:type</text>
<text text-anchor="start" x="816.75" y="-66.8" font-family="Times New Roman,serif" font-size="14.00"> </text>
</g>
<!-- node3 -->
<g id="node3" class="node">
<title>node3</title>
<polygon fill="grey" stroke="transparent" points="469.75,-20 469.75,-39 682.75,-39 682.75,-20 469.75,-20"/>
<text text-anchor="start" x="527.75" y="-26.8" font-family="DejaVu Sans" font-weight="bold" font-size="14.00">ComplexType</text>
<g id="a_node3_2"><a xlink:href="http://knowdive.disi.unitn.it/etype#ComplexType" xlink:title="&lt;TABLE&gt;">
<polygon fill="#eeeeee" stroke="transparent" points="469.75,-5 469.75,-20 682.75,-20 682.75,-5 469.75,-5"/>
<text text-anchor="start" x="471.75" y="-10" font-family="DejaVu Sans" font-size="10.00" fill="#6666ff">http://knowdive.disi.unitn.it/etype#ComplexType</text>
</a>
</g>
<polygon fill="none" stroke="#666666" points="468.25,-4 468.25,-40 683.25,-40 683.25,-4 468.25,-4"/>
</g>
<!-- node0&#45;&gt;node3 -->
<g id="edge2" class="edge">
<title>node0:&#45;&gt;node3:</title>
<path fill="none" stroke="BLACK" d="M448.35,-94.75C474.18,-80.2 504.7,-63.01 529.39,-49.11"/>
<polygon fill="BLACK" stroke="BLACK" points="531.2,-52.1 538.2,-44.15 527.77,-46 531.2,-52.1"/>
<text text-anchor="start" x="506.75" y="-66.8" font-family="Times New Roman,serif" font-size="14.00"> </text>
<text text-anchor="start" x="510.75" y="-66.8" font-family="Times New Roman,serif" font-size="10.00" fill="#336633">rdf:type</text>
<text text-anchor="start" x="542.75" y="-66.8" font-family="Times New Roman,serif" font-size="14.00"> </text>
</g>
<!-- node7 -->
<g id="node8" class="node">
<title>node7</title>
<polygon fill="grey" stroke="transparent" points="1423.75,-20 1423.75,-39 1599.75,-39 1599.75,-20 1423.75,-20"/>
<text text-anchor="start" x="1491.25" y="-26.8" font-family="DejaVu Sans" font-weight="bold" font-size="14.00">Thing</text>
<g id="a_node8_3"><a xlink:href="http://www.w3.org/2002/07/owl#Thing" xlink:title="&lt;TABLE&gt;">
<polygon fill="#eeeeee" stroke="transparent" points="1423.75,-5 1423.75,-20 1599.75,-20 1599.75,-5 1423.75,-5"/>
<text text-anchor="start" x="1425.75" y="-10" font-family="DejaVu Sans" font-size="10.00" fill="#6666ff">http://www.w3.org/2002/07/owl#Thing</text>
</a>
</g>
<polygon fill="none" stroke="#666666" points="1422.75,-4 1422.75,-40 1600.75,-40 1600.75,-4 1422.75,-4"/>
</g>
<!-- node0&#45;&gt;node7 -->
<g id="edge11" class="edge">
<title>node0:&#45;&gt;node7:</title>
<path fill="none" stroke="BLACK" d="M724.7,-95.98C729.41,-95.65 734.1,-95.32 738.75,-95 819.76,-89.42 1026.5,-102.05 1103.75,-77 1115.35,-73.24 1115.24,-66.06 1126.75,-62 1176.23,-44.53 1308.69,-33.86 1404.43,-28.19"/>
<polygon fill="BLACK" stroke="BLACK" points="1404.67,-31.68 1414.45,-27.61 1404.26,-24.7 1404.67,-31.68"/>
<text text-anchor="start" x="1126.75" y="-66.8" font-family="Times New Roman,serif" font-size="14.00"> </text>
<text text-anchor="start" x="1130.75" y="-66.8" font-family="Times New Roman,serif" font-size="10.00" fill="#336633">rdf:type</text>
<text text-anchor="start" x="1162.75" y="-66.8" font-family="Times New Roman,serif" font-size="14.00"> </text>
</g>
<!-- node2 -->
<g id="node4" class="node">
<title>node2</title>
<polygon fill="grey" stroke="transparent" points="387.75,-323.5 387.75,-342.5 1066.75,-342.5 1066.75,-323.5 387.75,-323.5"/>
<text text-anchor="start" x="578.25" y="-330.3" font-family="DejaVu Sans" font-weight="bold" font-size="14.00">fd363c8b4e6ca42c1b66a902fec720eb2b3</text>
<g id="a_node4_4"><a xlink:href="fd363c8b4e6ca42c1b66a902fec720eb2b3" xlink:title="&lt;TABLE&gt;">
<polygon fill="#eeeeee" stroke="transparent" points="387.75,-308.5 387.75,-323.5 1066.75,-323.5 1066.75,-308.5 387.75,-308.5"/>
<text text-anchor="start" x="638.75" y="-313.5" font-family="DejaVu Sans" font-size="10.00" fill="#6666ff">fd363c8b4e6ca42c1b66a902fec720eb2b3</text>
</a>
</g>
<text text-anchor="start" x="389.75" y="-295.3" font-family="DejaVu Sans" font-size="14.00">ns1:has_date_GID&#45;80737_Type&#45;31728</text>
<text text-anchor="start" x="743.75" y="-295.3" font-family="DejaVu Sans" font-size="14.00">&quot;1974&#45;01&#45;11 03:14:30.127000000&quot;^^xsd:dateTime</text>
<text text-anchor="start" x="389.75" y="-276.3" font-family="DejaVu Sans" font-size="14.00">ns1:has_identifier_GID&#45;39085_Type&#45;1</text>
<text text-anchor="start" x="743.75" y="-276.3" font-family="DejaVu Sans" font-size="14.00">&quot;1&quot;^^xsd:string</text>
<text text-anchor="start" x="389.75" y="-257.3" font-family="DejaVu Sans" font-size="14.00">ns1:has_kind_GID&#45;31829_Type&#45;31728</text>
<text text-anchor="start" x="743.75" y="-257.3" font-family="DejaVu Sans" font-size="14.00">&quot;CBC: MONOCYTES&quot;^^xsd:string</text>
<text text-anchor="start" x="389.75" y="-238.3" font-family="DejaVu Sans" font-size="14.00">ns1:has_measure_GID&#45;146_Type&#45;31728</text>
<text text-anchor="start" x="743.75" y="-238.3" font-family="DejaVu Sans" font-size="14.00">&quot;0.9&quot;^^xsd:float</text>
<text text-anchor="start" x="389.75" y="-219.3" font-family="DejaVu Sans" font-size="14.00">ns1:has_unit_of_measurement_GID&#45;72050_Type&#45;31728</text>
<text text-anchor="start" x="743.75" y="-219.3" font-family="DejaVu Sans" font-size="14.00">&quot;k/cumm&quot;^^xsd:string</text>
<polygon fill="none" stroke="#666666" points="386.25,-213 386.25,-344 1067.25,-344 1067.25,-213 386.25,-213"/>
</g>
<!-- node2&#45;&gt;node0 -->
<g id="edge16" class="edge">
<title>node2:&#45;&gt;node0:</title>
<path fill="none" stroke="BLACK" d="M574.38,-208.87C538.53,-192.72 501.79,-176.17 470.9,-162.25"/>
<polygon fill="BLACK" stroke="BLACK" points="472.06,-158.94 461.5,-158.02 469.18,-165.32 472.06,-158.94"/>
<text text-anchor="start" x="530.75" y="-180.8" font-family="Times New Roman,serif" font-size="14.00"> </text>
<text text-anchor="start" x="534.75" y="-180.8" font-family="Times New Roman,serif" font-size="10.00" fill="#336633">ns1:has_analysis_GID&#45;31507_Type&#45;55936</text>
<text text-anchor="start" x="702.75" y="-180.8" font-family="Times New Roman,serif" font-size="14.00"> </text>
</g>
<!-- node2&#45;&gt;node3 -->
<g id="edge8" class="edge">
<title>node2:&#45;&gt;node3:</title>
<path fill="none" stroke="BLACK" d="M378.06,-260.83C222.1,-245.33 62.4,-215.48 13.75,-158 -4.34,-136.63 -4.75,-116.02 13.75,-95 42.1,-62.78 293.04,-41.02 449.87,-30.44"/>
<polygon fill="BLACK" stroke="BLACK" points="450.31,-33.92 460.06,-29.76 449.85,-26.94 450.31,-33.92"/>
<text text-anchor="start" x="13.75" y="-123.8" font-family="Times New Roman,serif" font-size="14.00"> </text>
<text text-anchor="start" x="17.75" y="-123.8" font-family="Times New Roman,serif" font-size="10.00" fill="#336633">rdf:type</text>
<text text-anchor="start" x="49.75" y="-123.8" font-family="Times New Roman,serif" font-size="14.00"> </text>
</g>
<!-- node4 -->
<g id="node5" class="node">
<title>node4</title>
<polygon fill="grey" stroke="transparent" points="827.75,-124.5 827.75,-143.5 1035.75,-143.5 1035.75,-124.5 827.75,-124.5"/>
<text text-anchor="start" x="884.25" y="-131.3" font-family="DejaVu Sans" font-weight="bold" font-size="14.00">Entity_GID&#45;1</text>
<g id="a_node5_5"><a xlink:href="http://knowdive.disi.unitn.it/etype#Entity_GID-1" xlink:title="&lt;TABLE&gt;">
<polygon fill="#eeeeee" stroke="transparent" points="827.75,-109.5 827.75,-124.5 1035.75,-124.5 1035.75,-109.5 827.75,-109.5"/>
<text text-anchor="start" x="829.75" y="-114.5" font-family="DejaVu Sans" font-size="10.00" fill="#6666ff">http://knowdive.disi.unitn.it/etype#Entity_GID&#45;1</text>
</a>
</g>
<polygon fill="none" stroke="#666666" points="826.75,-108.5 826.75,-144.5 1036.75,-144.5 1036.75,-108.5 826.75,-108.5"/>
</g>
<!-- node2&#45;&gt;node4 -->
<g id="edge3" class="edge">
<title>node2:&#45;&gt;node4:</title>
<path fill="none" stroke="BLACK" d="M820.55,-208.87C846.86,-189.61 873.95,-169.79 894.8,-154.53"/>
<polygon fill="BLACK" stroke="BLACK" points="897.04,-157.23 903.04,-148.5 892.91,-151.58 897.04,-157.23"/>
<text text-anchor="start" x="865.75" y="-180.8" font-family="Times New Roman,serif" font-size="14.00"> </text>
<text text-anchor="start" x="869.75" y="-180.8" font-family="Times New Roman,serif" font-size="10.00" fill="#336633">rdf:type</text>
<text text-anchor="start" x="901.75" y="-180.8" font-family="Times New Roman,serif" font-size="14.00"> </text>
</g>
<!-- node2&#45;&gt;node7 -->
<g id="edge10" class="edge">
<title>node2:&#45;&gt;node7:</title>
<path fill="none" stroke="BLACK" d="M734.29,-208.97C740.83,-163.52 752.08,-109.65 769.75,-95 803.73,-66.81 1122.81,-81.42 1166.75,-77 1246.95,-68.93 1336.91,-54.68 1404.85,-42.84"/>
<polygon fill="BLACK" stroke="BLACK" points="1405.46,-46.28 1414.71,-41.11 1404.26,-39.39 1405.46,-46.28"/>
<text text-anchor="start" x="769.75" y="-123.8" font-family="Times New Roman,serif" font-size="14.00"> </text>
<text text-anchor="start" x="773.75" y="-123.8" font-family="Times New Roman,serif" font-size="10.00" fill="#336633">rdf:type</text>
<text text-anchor="start" x="805.75" y="-123.8" font-family="Times New Roman,serif" font-size="14.00"> </text>
</g>
<!-- node8 -->
<g id="node9" class="node">
<title>node8</title>
<polygon fill="grey" stroke="transparent" points="1072.75,-124.5 1072.75,-143.5 1329.75,-143.5 1329.75,-124.5 1072.75,-124.5"/>
<text text-anchor="start" x="1113.75" y="-131.3" font-family="DejaVu Sans" font-weight="bold" font-size="14.00">Observation_GID&#45;31728</text>
<g id="a_node9_6"><a xlink:href="http://knowdive.disi.unitn.it/etype#Observation_GID-31728" xlink:title="&lt;TABLE&gt;">
<polygon fill="#eeeeee" stroke="transparent" points="1072.75,-109.5 1072.75,-124.5 1329.75,-124.5 1329.75,-109.5 1072.75,-109.5"/>
<text text-anchor="start" x="1074.75" y="-114.5" font-family="DejaVu Sans" font-size="10.00" fill="#6666ff">http://knowdive.disi.unitn.it/etype#Observation_GID&#45;31728</text>
</a>
</g>
<polygon fill="none" stroke="#666666" points="1071.25,-108.5 1071.25,-144.5 1330.25,-144.5 1330.25,-108.5 1071.25,-108.5"/>
</g>
<!-- node2&#45;&gt;node8 -->
<g id="edge9" class="edge">
<title>node2:&#45;&gt;node8:</title>
<path fill="none" stroke="BLACK" d="M954.83,-208.93C974.1,-202.93 993.28,-196.9 1011.75,-191 1050.92,-178.48 1094.45,-163.9 1129.85,-151.87"/>
<polygon fill="BLACK" stroke="BLACK" points="1131.27,-155.08 1139.61,-148.55 1129.02,-148.46 1131.27,-155.08"/>
<text text-anchor="start" x="1053.75" y="-180.8" font-family="Times New Roman,serif" font-size="14.00"> </text>
<text text-anchor="start" x="1057.75" y="-180.8" font-family="Times New Roman,serif" font-size="10.00" fill="#336633">rdf:type</text>
<text text-anchor="start" x="1089.75" y="-180.8" font-family="Times New Roman,serif" font-size="14.00"> </text>
</g>
<!-- node5 -->
<g id="node6" class="node">
<title>node5</title>
<polygon fill="grey" stroke="transparent" points="1102.75,-323.5 1102.75,-342.5 1781.75,-342.5 1781.75,-323.5 1102.75,-323.5"/>
<text text-anchor="start" x="1293.25" y="-330.3" font-family="DejaVu Sans" font-weight="bold" font-size="14.00">fd363c8b4e6ca42c1b66a902fec720eb2b2</text>
<g id="a_node6_7"><a xlink:href="fd363c8b4e6ca42c1b66a902fec720eb2b2" xlink:title="&lt;TABLE&gt;">
<polygon fill="#eeeeee" stroke="transparent" points="1102.75,-308.5 1102.75,-323.5 1781.75,-323.5 1781.75,-308.5 1102.75,-308.5"/>
<text text-anchor="start" x="1353.75" y="-313.5" font-family="DejaVu Sans" font-size="10.00" fill="#6666ff">fd363c8b4e6ca42c1b66a902fec720eb2b2</text>
</a>
</g>
<text text-anchor="start" x="1104.75" y="-295.3" font-family="DejaVu Sans" font-size="14.00">ns1:has_date_GID&#45;80737_Type&#45;31728</text>
<text text-anchor="start" x="1458.75" y="-295.3" font-family="DejaVu Sans" font-size="14.00">&quot;1974&#45;01&#45;11 21:10:51.930000000&quot;^^xsd:dateTime</text>
<text text-anchor="start" x="1104.75" y="-276.3" font-family="DejaVu Sans" font-size="14.00">ns1:has_identifier_GID&#45;39085_Type&#45;1</text>
<text text-anchor="start" x="1458.75" y="-276.3" font-family="DejaVu Sans" font-size="14.00">&quot;1&quot;^^xsd:string</text>
<text text-anchor="start" x="1104.75" y="-257.3" font-family="DejaVu Sans" font-size="14.00">ns1:has_kind_GID&#45;31829_Type&#45;31728</text>
<text text-anchor="start" x="1458.75" y="-257.3" font-family="DejaVu Sans" font-size="14.00">&quot;METABOLIC: ALT/SGPT&quot;^^xsd:string</text>
<text text-anchor="start" x="1104.75" y="-238.3" font-family="DejaVu Sans" font-size="14.00">ns1:has_measure_GID&#45;146_Type&#45;31728</text>
<text text-anchor="start" x="1458.75" y="-238.3" font-family="DejaVu Sans" font-size="14.00">&quot;40.0&quot;^^xsd:float</text>
<text text-anchor="start" x="1104.75" y="-219.3" font-family="DejaVu Sans" font-size="14.00">ns1:has_unit_of_measurement_GID&#45;72050_Type&#45;31728</text>
<text text-anchor="start" x="1458.75" y="-219.3" font-family="DejaVu Sans" font-size="14.00">&quot;U/L&quot;^^xsd:string</text>
<polygon fill="none" stroke="#666666" points="1101.25,-213 1101.25,-344 1782.25,-344 1782.25,-213 1101.25,-213"/>
</g>
<!-- node5&#45;&gt;node3 -->
<g id="edge6" class="edge">
<title>node5:&#45;&gt;node3:</title>
<path fill="none" stroke="BLACK" d="M1408.38,-208.86C1383.63,-158.6 1353.27,-98.56 1347.75,-95 1313.42,-72.9 1021.4,-80.7 980.75,-77 886.92,-68.46 781.43,-54.24 701.64,-42.54"/>
<polygon fill="BLACK" stroke="BLACK" points="701.95,-39.05 691.55,-41.06 700.93,-45.98 701.95,-39.05"/>
<text text-anchor="start" x="1381.75" y="-123.8" font-family="Times New Roman,serif" font-size="14.00"> </text>
<text text-anchor="start" x="1385.75" y="-123.8" font-family="Times New Roman,serif" font-size="10.00" fill="#336633">rdf:type</text>
<text text-anchor="start" x="1417.75" y="-123.8" font-family="Times New Roman,serif" font-size="14.00"> </text>
</g>
<!-- node5&#45;&gt;node4 -->
<g id="edge15" class="edge">
<title>node5:&#45;&gt;node4:</title>
<path fill="none" stroke="BLACK" d="M1093.14,-210.63C1090,-210.08 1086.86,-209.54 1083.75,-209 1032.34,-200.1 1010.67,-220.65 967.75,-191 956.23,-183.04 947.95,-170.13 942.25,-158.02"/>
<polygon fill="BLACK" stroke="BLACK" points="945.37,-156.41 938.23,-148.59 938.93,-159.16 945.37,-156.41"/>
<text text-anchor="start" x="967.75" y="-180.8" font-family="Times New Roman,serif" font-size="14.00"> </text>
<text text-anchor="start" x="971.75" y="-180.8" font-family="Times New Roman,serif" font-size="10.00" fill="#336633">rdf:type</text>
<text text-anchor="start" x="1003.75" y="-180.8" font-family="Times New Roman,serif" font-size="14.00"> </text>
</g>
<!-- node6 -->
<g id="node7" class="node">
<title>node6</title>
<polygon fill="grey" stroke="transparent" points="1442.75,-133.5 1442.75,-152.5 2085.75,-152.5 2085.75,-133.5 1442.75,-133.5"/>
<text text-anchor="start" x="1615.25" y="-140.3" font-family="DejaVu Sans" font-weight="bold" font-size="14.00">fd363c8b4e6ca42c1b66a902fec720eb2b1</text>
<g id="a_node7_8"><a xlink:href="fd363c8b4e6ca42c1b66a902fec720eb2b1" xlink:title="&lt;TABLE&gt;">
<polygon fill="#eeeeee" stroke="transparent" points="1442.75,-118.5 1442.75,-133.5 2085.75,-133.5 2085.75,-118.5 1442.75,-118.5"/>
<text text-anchor="start" x="1675.75" y="-123.5" font-family="DejaVu Sans" font-size="10.00" fill="#6666ff">fd363c8b4e6ca42c1b66a902fec720eb2b1</text>
</a>
</g>
<text text-anchor="start" x="1444.75" y="-105.3" font-family="DejaVu Sans" font-size="14.00">ns1:has_identifier_GID&#45;39085_Type&#45;55936</text>
<text text-anchor="start" x="1716.75" y="-105.3" font-family="DejaVu Sans" font-size="14.00">&quot;BF7165BC&#45;CCD9&#45;4CE4&#45;944F&#45;E3C9786B7BF3&quot;^^xsd:string</text>
<polygon fill="none" stroke="#666666" points="1441.25,-99 1441.25,-154 2086.25,-154 2086.25,-99 1441.25,-99"/>
</g>
<!-- node5&#45;&gt;node6 -->
<g id="edge4" class="edge">
<title>node5:&#45;&gt;node6:</title>
<path fill="none" stroke="BLACK" d="M1589.08,-208.87C1623.75,-192.72 1659.27,-176.17 1689.14,-162.25"/>
<polygon fill="BLACK" stroke="BLACK" points="1690.64,-165.42 1698.23,-158.02 1687.69,-159.07 1690.64,-165.42"/>
<text text-anchor="start" x="1658.75" y="-180.8" font-family="Times New Roman,serif" font-size="14.00"> </text>
<text text-anchor="start" x="1662.75" y="-180.8" font-family="Times New Roman,serif" font-size="10.00" fill="#336633">ns1:has_analysis_GID&#45;31507_Type&#45;55936</text>
<text text-anchor="start" x="1830.75" y="-180.8" font-family="Times New Roman,serif" font-size="14.00"> </text>
</g>
<!-- node5&#45;&gt;node7 -->
<g id="edge5" class="edge">
<title>node5:&#45;&gt;node7:</title>
<path fill="none" stroke="BLACK" d="M1790.6,-254.75C1927.2,-237.92 2061.39,-208.69 2103.75,-158 2121.7,-136.51 2122.31,-115.96 2103.75,-95 2072.21,-59.39 1780.86,-37.8 1618.98,-28.46"/>
<polygon fill="BLACK" stroke="BLACK" points="1619.17,-24.96 1608.99,-27.88 1618.77,-31.95 1619.17,-24.96"/>
<text text-anchor="start" x="2116.75" y="-123.8" font-family="Times New Roman,serif" font-size="14.00"> </text>
<text text-anchor="start" x="2120.75" y="-123.8" font-family="Times New Roman,serif" font-size="10.00" fill="#336633">rdf:type</text>
<text text-anchor="start" x="2152.75" y="-123.8" font-family="Times New Roman,serif" font-size="14.00"> </text>
</g>
<!-- node5&#45;&gt;node8 -->
<g id="edge7" class="edge">
<title>node5:&#45;&gt;node8:</title>
<path fill="none" stroke="BLACK" d="M1331.47,-208.87C1300.12,-189.35 1267.84,-169.26 1243.2,-153.93"/>
<polygon fill="BLACK" stroke="BLACK" points="1244.83,-150.81 1234.49,-148.5 1241.13,-156.76 1244.83,-150.81"/>
<text text-anchor="start" x="1298.75" y="-180.8" font-family="Times New Roman,serif" font-size="14.00"> </text>
<text text-anchor="start" x="1302.75" y="-180.8" font-family="Times New Roman,serif" font-size="10.00" fill="#336633">rdf:type</text>
<text text-anchor="start" x="1334.75" y="-180.8" font-family="Times New Roman,serif" font-size="14.00"> </text>
</g>
<!-- node6&#45;&gt;node1 -->
<g id="edge12" class="edge">
<title>node6:&#45;&gt;node1:</title>
<path fill="none" stroke="BLACK" d="M1432.79,-95.99C1428.08,-95.65 1423.39,-95.32 1418.75,-95 1379.35,-92.26 1099.17,-94.46 1063.75,-77 1052.64,-71.53 1043.16,-62.02 1035.75,-52.5"/>
<polygon fill="BLACK" stroke="BLACK" points="1038.46,-50.28 1029.77,-44.22 1032.79,-54.38 1038.46,-50.28"/>
<text text-anchor="start" x="1063.75" y="-66.8" font-family="Times New Roman,serif" font-size="14.00"> </text>
<text text-anchor="start" x="1067.75" y="-66.8" font-family="Times New Roman,serif" font-size="10.00" fill="#336633">rdf:type</text>
<text text-anchor="start" x="1099.75" y="-66.8" font-family="Times New Roman,serif" font-size="14.00"> </text>
</g>
<!-- node6&#45;&gt;node3 -->
<g id="edge13" class="edge">
<title>node6:&#45;&gt;node3:</title>
<path fill="none" stroke="BLACK" d="M1432.79,-95.94C1428.08,-95.62 1423.4,-95.31 1418.75,-95 1326.19,-88.91 1090.33,-104.49 1001.75,-77 989.73,-73.27 989.66,-66.05 977.75,-62 928.24,-45.17 800,-34.72 701.55,-28.92"/>
<polygon fill="BLACK" stroke="BLACK" points="701.7,-25.42 691.52,-28.34 701.3,-32.41 701.7,-25.42"/>
<text text-anchor="start" x="1001.75" y="-66.8" font-family="Times New Roman,serif" font-size="14.00"> </text>
<text text-anchor="start" x="1005.75" y="-66.8" font-family="Times New Roman,serif" font-size="10.00" fill="#336633">rdf:type</text>
<text text-anchor="start" x="1037.75" y="-66.8" font-family="Times New Roman,serif" font-size="14.00"> </text>
</g>
<!-- node6&#45;&gt;node7 -->
<g id="edge14" class="edge">
<title>node6:&#45;&gt;node7:</title>
<path fill="none" stroke="BLACK" d="M1688.48,-94.89C1651.63,-79.9 1607.82,-62.08 1573.04,-47.93"/>
<polygon fill="BLACK" stroke="BLACK" points="1574.07,-44.57 1563.48,-44.04 1571.43,-51.05 1574.07,-44.57"/>
<text text-anchor="start" x="1637.75" y="-66.8" font-family="Times New Roman,serif" font-size="14.00"> </text>
<text text-anchor="start" x="1641.75" y="-66.8" font-family="Times New Roman,serif" font-size="10.00" fill="#336633">rdf:type</text>
<text text-anchor="start" x="1673.75" y="-66.8" font-family="Times New Roman,serif" font-size="14.00"> </text>
</g>
</g>
</svg>
