<?xml version="1.0" encoding="UTF-8" standalone="no"?>
<!DOCTYPE svg PUBLIC "-//W3C//DTD SVG 1.1//EN"
 "http://www.w3.org/Graphics/SVG/1.1/DTD/svg11.dtd">
<!-- Generated by graphviz version 2.44.2~dev.20201112.1525 (20201112.1525)
 -->
<!-- Pages: 1 -->
<svg width="5585pt" height="394pt"
 viewBox="0.00 0.00 5585.12 394.00" xmlns="http://www.w3.org/2000/svg" xmlns:xlink="http://www.w3.org/1999/xlink">
<g id="graph0" class="graph" transform="scale(1 1) rotate(0) translate(4 390)">
<polygon fill="white" stroke="transparent" points="-4,4 -4,-390 5581.12,-390 5581.12,4 -4,4"/>
<!-- node0 -->
<g id="node1" class="node">
<title>node0</title>
<polygon fill="grey" stroke="transparent" points="2374.12,-361.5 2374.12,-380.5 2958.12,-380.5 2958.12,-361.5 2374.12,-361.5"/>
<text text-anchor="start" x="2523.12" y="-368.3" font-family="DejaVu Sans" font-weight="bold" font-size="14.00">fb258f6eee51f42bea2f3efaf11ed476ab2</text>
<g id="a_node1_0"><a xlink:href="fb258f6eee51f42bea2f3efaf11ed476ab2" xlink:title="&lt;TABLE&gt;">
<polygon fill="#eeeeee" stroke="transparent" points="2374.12,-346.5 2374.12,-361.5 2958.12,-361.5 2958.12,-346.5 2374.12,-346.5"/>
<text text-anchor="start" x="2580.62" y="-351.5" font-family="DejaVu Sans" font-size="10.00" fill="#6666ff">fb258f6eee51f42bea2f3efaf11ed476ab2</text>
</a>
</g>
<text text-anchor="start" x="2376.12" y="-333.3" font-family="DejaVu Sans" font-size="14.00">ns1:has_condition_GID&#45;74023_Type&#45;77328</text>
<text text-anchor="start" x="2650.12" y="-333.3" font-family="DejaVu Sans" font-size="14.00">&quot;Adhesive right middle ear disease&quot;^^xsd:string</text>
<polygon fill="none" stroke="#666666" points="2373.12,-327 2373.12,-382 2959.12,-382 2959.12,-327 2373.12,-327"/>
</g>
<!-- node1 -->
<g id="node2" class="node">
<title>node1</title>
<polygon fill="grey" stroke="transparent" points="167.12,-247.5 167.12,-266.5 2713.12,-266.5 2713.12,-247.5 167.12,-247.5"/>
<text text-anchor="start" x="1297.12" y="-254.3" font-family="DejaVu Sans" font-weight="bold" font-size="14.00">fb258f6eee51f42bea2f3efaf11ed476ab1</text>
<g id="a_node2_1"><a xlink:href="fb258f6eee51f42bea2f3efaf11ed476ab1" xlink:title="&lt;TABLE&gt;">
<polygon fill="#eeeeee" stroke="transparent" points="167.12,-232.5 167.12,-247.5 2713.12,-247.5 2713.12,-232.5 167.12,-232.5"/>
<text text-anchor="start" x="1354.62" y="-237.5" font-family="DejaVu Sans" font-size="10.00" fill="#6666ff">fb258f6eee51f42bea2f3efaf11ed476ab1</text>
</a>
</g>
<text text-anchor="start" x="169.12" y="-219.3" font-family="DejaVu Sans" font-size="14.00">ns1:has_birthday_GID&#45;81257_Type&#45;55936</text>
<text text-anchor="start" x="444.12" y="-219.3" font-family="DejaVu Sans" font-size="14.00">&quot;1961&#45;04&#45;14 05:08:57.297&quot;^^xsd:dateTime</text>
<text text-anchor="start" x="169.12" y="-200.3" font-family="DejaVu Sans" font-size="14.00">ns1:has_date_GID&#45;80737_Type&#45;55936</text>
<text text-anchor="start" x="444.12" y="-200.3" font-family="DejaVu Sans" font-size="14.00">&quot;17&#45;12&#45;2020&quot;^^xsd:dateTime</text>
<text text-anchor="start" x="169.12" y="-181.3" font-family="DejaVu Sans" font-size="14.00">ns1:has_identifier_GID&#45;39085_Type&#45;55936</text>
<text text-anchor="start" x="444.12" y="-181.3" font-family="DejaVu Sans" font-size="14.00">&quot;A48FF6B1&#45;F92A&#45;40A3&#45;BB02&#45;C29195FBDDBC&quot;^^xsd:string</text>
<text text-anchor="start" x="169.12" y="-162.3" font-family="DejaVu Sans" font-size="14.00">ns1:has_language_GID&#45;33764_Type&#45;55936</text>
<text text-anchor="start" x="444.12" y="-162.3" font-family="DejaVu Sans" font-size="14.00">&quot;{&quot;id&quot;:&quot;36668&quot;,&quot;kind&quot;:&quot;CONCEPT&quot;,&quot;probability&quot;:0.75,&quot;name&quot;:{&quot;strings&quot;:{&quot;eng&quot;:[&quot;english&quot;]}},&quot;description&quot;:{&quot;strings&quot;:{&quot;eng&quot;:[&quot;an Indo&#45;European language belonging to the West Germanic branch; the official language of Britain and the United States and most of the commonwealth countries&quot;]}},&quot;metadata&quot;:{&quot;summary&quot;:&quot;&quot;,&quot;lemma&quot;:&quot;english&quot;}}&quot;^^xsd:Concept</text>
<text text-anchor="start" x="169.12" y="-143.3" font-family="DejaVu Sans" font-size="14.00">ns1:has_sex_GID&#45;27646_Type&#45;55936</text>
<text text-anchor="start" x="444.12" y="-143.3" font-family="DejaVu Sans" font-size="14.00">&quot;{&quot;id&quot;:&quot;6494&quot;,&quot;kind&quot;:&quot;CONCEPT&quot;,&quot;probability&quot;:0.8181818127632141,&quot;name&quot;:{&quot;strings&quot;:{&quot;eng&quot;:[&quot;female&quot;]}},&quot;description&quot;:{&quot;strings&quot;:{&quot;eng&quot;:[&quot;an animal that produces gametes (ova) that can be fertilized by male gametes (spermatozoa)&quot;]}},&quot;metadata&quot;:{&quot;summary&quot;:&quot;&quot;,&quot;lemma&quot;:&quot;female&quot;}}&quot;^^xsd:Concept</text>
<text text-anchor="start" x="169.12" y="-124.3" font-family="DejaVu Sans" font-size="14.00">ns1:has_source_GID&#45;35781_Type&#45;55936</text>
<text text-anchor="start" x="444.12" y="-124.3" font-family="DejaVu Sans" font-size="14.00">&quot;EMRBots&quot;^^xsd:string</text>
<text text-anchor="start" x="169.12" y="-105.3" font-family="DejaVu Sans" font-size="14.00">ns1:has_url_GID&#45;34123_Type&#45;55936</text>
<text text-anchor="start" x="444.12" y="-105.3" font-family="DejaVu Sans" font-size="14.00">&quot;http://www.emrbots.org&quot;^^xsd:string</text>
<polygon fill="none" stroke="#666666" points="166.12,-99 166.12,-268 2714.12,-268 2714.12,-99 166.12,-99"/>
</g>
<!-- node0&#45;&gt;node1 -->
<g id="edge1" class="edge">
<title>node0:&#45;&gt;node1:</title>
<path fill="none" stroke="BLACK" d="M2444.81,-322.99C2342.3,-308.86 2214.64,-291.27 2085.08,-273.4"/>
<polygon fill="BLACK" stroke="BLACK" points="2085.33,-269.91 2074.95,-272.01 2084.37,-276.84 2085.33,-269.91"/>
<text text-anchor="start" x="2304.12" y="-294.8" font-family="Times New Roman,serif" font-size="14.00"> </text>
<text text-anchor="start" x="2308.12" y="-294.8" font-family="Times New Roman,serif" font-size="10.00" fill="#336633">ns1:has_diagnosis_GID&#45;765_Type&#45;55936</text>
<text text-anchor="start" x="2473.12" y="-294.8" font-family="Times New Roman,serif" font-size="14.00"> </text>
</g>
<!-- node3 -->
<g id="node3" class="node">
<title>node3</title>
<polygon fill="grey" stroke="transparent" points="464.12,-20 464.12,-39 677.12,-39 677.12,-20 464.12,-20"/>
<text text-anchor="start" x="522.12" y="-26.8" font-family="DejaVu Sans" font-weight="bold" font-size="14.00">ComplexType</text>
<g id="a_node3_2"><a xlink:href="http://knowdive.disi.unitn.it/etype#ComplexType" xlink:title="&lt;TABLE&gt;">
<polygon fill="#eeeeee" stroke="transparent" points="464.12,-5 464.12,-20 677.12,-20 677.12,-5 464.12,-5"/>
<text text-anchor="start" x="466.12" y="-10" font-family="DejaVu Sans" font-size="10.00" fill="#6666ff">http://knowdive.disi.unitn.it/etype#ComplexType</text>
</a>
</g>
<polygon fill="none" stroke="#666666" points="462.62,-4 462.62,-40 677.62,-40 677.62,-4 462.62,-4"/>
</g>
<!-- node0&#45;&gt;node3 -->
<g id="edge2" class="edge">
<title>node0:&#45;&gt;node3:</title>
<path fill="none" stroke="BLACK" d="M2364.96,-349.6C1683.31,-340.07 78.14,-313.27 38.12,-272 -28.52,-203.26 -4.09,-94.05 86.12,-62 149.77,-39.39 323.38,-29.8 444.35,-25.8"/>
<polygon fill="BLACK" stroke="BLACK" points="444.54,-29.29 454.42,-25.47 444.31,-22.3 444.54,-29.29"/>
<text text-anchor="start" x="38.12" y="-180.8" font-family="Times New Roman,serif" font-size="14.00"> </text>
<text text-anchor="start" x="42.12" y="-180.8" font-family="Times New Roman,serif" font-size="10.00" fill="#336633">rdf:type</text>
<text text-anchor="start" x="74.12" y="-180.8" font-family="Times New Roman,serif" font-size="14.00"> </text>
</g>
<!-- node5 -->
<g id="node5" class="node">
<title>node5</title>
<polygon fill="grey" stroke="transparent" points="2826.12,-181.5 2826.12,-200.5 3071.12,-200.5 3071.12,-181.5 2826.12,-181.5"/>
<text text-anchor="start" x="2869.62" y="-188.3" font-family="DejaVu Sans" font-weight="bold" font-size="14.00">Condition_GID&#45;77328</text>
<g id="a_node5_3"><a xlink:href="http://knowdive.disi.unitn.it/etype#Condition_GID-77328" xlink:title="&lt;TABLE&gt;">
<polygon fill="#eeeeee" stroke="transparent" points="2826.12,-166.5 2826.12,-181.5 3071.12,-181.5 3071.12,-166.5 2826.12,-166.5"/>
<text text-anchor="start" x="2828.12" y="-171.5" font-family="DejaVu Sans" font-size="10.00" fill="#6666ff">http://knowdive.disi.unitn.it/etype#Condition_GID&#45;77328</text>
</a>
</g>
<polygon fill="none" stroke="#666666" points="2824.62,-165.5 2824.62,-201.5 3071.62,-201.5 3071.62,-165.5 2824.62,-165.5"/>
</g>
<!-- node0&#45;&gt;node5 -->
<g id="edge8" class="edge">
<title>node0:&#45;&gt;node5:</title>
<path fill="none" stroke="BLACK" d="M2717.19,-322.9C2770.64,-290.86 2853.69,-241.09 2904.28,-210.78"/>
<polygon fill="BLACK" stroke="BLACK" points="2906.24,-213.68 2913.02,-205.53 2902.65,-207.67 2906.24,-213.68"/>
<text text-anchor="start" x="2766.12" y="-294.8" font-family="Times New Roman,serif" font-size="14.00"> </text>
<text text-anchor="start" x="2770.12" y="-294.8" font-family="Times New Roman,serif" font-size="10.00" fill="#336633">rdf:type</text>
<text text-anchor="start" x="2802.12" y="-294.8" font-family="Times New Roman,serif" font-size="14.00"> </text>
</g>
<!-- node6 -->
<g id="node7" class="node">
<title>node6</title>
<polygon fill="grey" stroke="transparent" points="3130.12,-20 3130.12,-39 3306.12,-39 3306.12,-20 3130.12,-20"/>
<text text-anchor="start" x="3197.62" y="-26.8" font-family="DejaVu Sans" font-weight="bold" font-size="14.00">Thing</text>
<g id="a_node7_4"><a xlink:href="http://www.w3.org/2002/07/owl#Thing" xlink:title="&lt;TABLE&gt;">
<polygon fill="#eeeeee" stroke="transparent" points="3130.12,-5 3130.12,-20 3306.12,-20 3306.12,-5 3130.12,-5"/>
<text text-anchor="start" x="3132.12" y="-10" font-family="DejaVu Sans" font-size="10.00" fill="#6666ff">http://www.w3.org/2002/07/owl#Thing</text>
</a>
</g>
<polygon fill="none" stroke="#666666" points="3129.12,-4 3129.12,-40 3307.12,-40 3307.12,-4 3129.12,-4"/>
</g>
<!-- node0&#45;&gt;node6 -->
<g id="edge6" class="edge">
<title>node0:&#45;&gt;node6:</title>
<path fill="none" stroke="BLACK" d="M2696.21,-322.96C2708.79,-308.58 2722.47,-290.53 2731.12,-272 2765.09,-199.26 2722.19,-161.52 2767.12,-95 2782.03,-72.94 2792.02,-70.88 2817.12,-62 2869.4,-43.5 3010.74,-32.96 3110.77,-27.61"/>
<polygon fill="BLACK" stroke="BLACK" points="3111.12,-31.09 3120.93,-27.08 3110.76,-24.1 3111.12,-31.09"/>
<text text-anchor="start" x="2767.12" y="-180.8" font-family="Times New Roman,serif" font-size="14.00"> </text>
<text text-anchor="start" x="2771.12" y="-180.8" font-family="Times New Roman,serif" font-size="10.00" fill="#336633">rdf:type</text>
<text text-anchor="start" x="2803.12" y="-180.8" font-family="Times New Roman,serif" font-size="14.00"> </text>
</g>
<!-- node7 -->
<g id="node8" class="node">
<title>node7</title>
<polygon fill="grey" stroke="transparent" points="3107.12,-181.5 3107.12,-200.5 3315.12,-200.5 3315.12,-181.5 3107.12,-181.5"/>
<text text-anchor="start" x="3163.62" y="-188.3" font-family="DejaVu Sans" font-weight="bold" font-size="14.00">Entity_GID&#45;1</text>
<g id="a_node8_5"><a xlink:href="http://knowdive.disi.unitn.it/etype#Entity_GID-1" xlink:title="&lt;TABLE&gt;">
<polygon fill="#eeeeee" stroke="transparent" points="3107.12,-166.5 3107.12,-181.5 3315.12,-181.5 3315.12,-166.5 3107.12,-166.5"/>
<text text-anchor="start" x="3109.12" y="-171.5" font-family="DejaVu Sans" font-size="10.00" fill="#6666ff">http://knowdive.disi.unitn.it/etype#Entity_GID&#45;1</text>
</a>
</g>
<polygon fill="none" stroke="#666666" points="3106.12,-165.5 3106.12,-201.5 3316.12,-201.5 3316.12,-165.5 3106.12,-165.5"/>
</g>
<!-- node0&#45;&gt;node7 -->
<g id="edge9" class="edge">
<title>node0:&#45;&gt;node7:</title>
<path fill="none" stroke="BLACK" d="M2959.93,-323C3037.47,-314.57 3101.01,-307.14 3105.12,-305 3144.38,-284.58 3175.72,-243.12 3193.86,-214.59"/>
<polygon fill="BLACK" stroke="BLACK" points="3197,-216.16 3199.28,-205.82 3191.05,-212.48 3197,-216.16"/>
<text text-anchor="start" x="3127.12" y="-294.8" font-family="Times New Roman,serif" font-size="14.00"> </text>
<text text-anchor="start" x="3131.12" y="-294.8" font-family="Times New Roman,serif" font-size="10.00" fill="#336633">rdf:type</text>
<text text-anchor="start" x="3163.12" y="-294.8" font-family="Times New Roman,serif" font-size="14.00"> </text>
</g>
<!-- node1&#45;&gt;node3 -->
<g id="edge11" class="edge">
<title>node1:&#45;&gt;node3:</title>
<path fill="none" stroke="BLACK" d="M962.81,-94.99C863.64,-76.81 767.44,-59.17 695.07,-45.91"/>
<polygon fill="BLACK" stroke="BLACK" points="695.49,-42.43 685.02,-44.06 694.23,-49.31 695.49,-42.43"/>
<text text-anchor="start" x="852.12" y="-66.8" font-family="Times New Roman,serif" font-size="14.00"> </text>
<text text-anchor="start" x="856.12" y="-66.8" font-family="Times New Roman,serif" font-size="10.00" fill="#336633">rdf:type</text>
<text text-anchor="start" x="888.12" y="-66.8" font-family="Times New Roman,serif" font-size="14.00"> </text>
</g>
<!-- node1&#45;&gt;node6 -->
<g id="edge5" class="edge">
<title>node1:&#45;&gt;node6:</title>
<path fill="none" stroke="BLACK" d="M2049.73,-95C2152.19,-82.42 2257.55,-70.78 2357.12,-62 2627.95,-38.12 2948.06,-28.49 3111.07,-24.91"/>
<polygon fill="BLACK" stroke="BLACK" points="3111.18,-28.41 3121.1,-24.7 3111.03,-21.41 3111.18,-28.41"/>
<text text-anchor="start" x="2357.12" y="-66.8" font-family="Times New Roman,serif" font-size="14.00"> </text>
<text text-anchor="start" x="2361.12" y="-66.8" font-family="Times New Roman,serif" font-size="10.00" fill="#336633">rdf:type</text>
<text text-anchor="start" x="2393.12" y="-66.8" font-family="Times New Roman,serif" font-size="14.00"> </text>
</g>
<!-- node8 -->
<g id="node9" class="node">
<title>node8</title>
<polygon fill="grey" stroke="transparent" points="1883.12,-20 1883.12,-39 2118.12,-39 2118.12,-20 1883.12,-20"/>
<text text-anchor="start" x="1931.12" y="-26.8" font-family="DejaVu Sans" font-weight="bold" font-size="14.00">Patient_GID&#45;55936</text>
<g id="a_node9_6"><a xlink:href="http://knowdive.disi.unitn.it/etype#Patient_GID-55936" xlink:title="&lt;TABLE&gt;">
<polygon fill="#eeeeee" stroke="transparent" points="1883.12,-5 1883.12,-20 2118.12,-20 2118.12,-5 1883.12,-5"/>
<text text-anchor="start" x="1885.12" y="-10" font-family="DejaVu Sans" font-size="10.00" fill="#6666ff">http://knowdive.disi.unitn.it/etype#Patient_GID&#45;55936</text>
</a>
</g>
<polygon fill="none" stroke="#666666" points="1881.62,-4 1881.62,-40 2118.62,-40 2118.62,-4 1881.62,-4"/>
</g>
<!-- node1&#45;&gt;node8 -->
<g id="edge12" class="edge">
<title>node1:&#45;&gt;node8:</title>
<path fill="none" stroke="BLACK" d="M1628.84,-94.98C1660.82,-82.48 1694.06,-70.88 1726.12,-62 1770.14,-49.81 1819.25,-41.3 1863.6,-35.41"/>
<polygon fill="BLACK" stroke="BLACK" points="1864.11,-38.88 1873.58,-34.12 1863.21,-31.93 1864.11,-38.88"/>
<text text-anchor="start" x="1726.12" y="-66.8" font-family="Times New Roman,serif" font-size="14.00"> </text>
<text text-anchor="start" x="1730.12" y="-66.8" font-family="Times New Roman,serif" font-size="10.00" fill="#336633">rdf:type</text>
<text text-anchor="start" x="1762.12" y="-66.8" font-family="Times New Roman,serif" font-size="14.00"> </text>
</g>
<!-- node4 -->
<g id="node4" class="node">
<title>node4</title>
<polygon fill="grey" stroke="transparent" points="2995.12,-361.5 2995.12,-380.5 3616.12,-380.5 3616.12,-361.5 2995.12,-361.5"/>
<text text-anchor="start" x="3162.62" y="-368.3" font-family="DejaVu Sans" font-weight="bold" font-size="14.00">fb258f6eee51f42bea2f3efaf11ed476ab4</text>
<g id="a_node4_7"><a xlink:href="fb258f6eee51f42bea2f3efaf11ed476ab4" xlink:title="&lt;TABLE&gt;">
<polygon fill="#eeeeee" stroke="transparent" points="2995.12,-346.5 2995.12,-361.5 3616.12,-361.5 3616.12,-346.5 2995.12,-346.5"/>
<text text-anchor="start" x="3220.12" y="-351.5" font-family="DejaVu Sans" font-size="10.00" fill="#6666ff">fb258f6eee51f42bea2f3efaf11ed476ab4</text>
</a>
</g>
<text text-anchor="start" x="2997.12" y="-333.3" font-family="DejaVu Sans" font-size="14.00">ns1:has_condition_GID&#45;74023_Type&#45;77328</text>
<text text-anchor="start" x="3271.12" y="-333.3" font-family="DejaVu Sans" font-size="14.00">&quot;Bipolar disorder, current episode mixed&quot;^^xsd:string</text>
<polygon fill="none" stroke="#666666" points="2993.62,-327 2993.62,-382 3616.62,-382 3616.62,-327 2993.62,-327"/>
</g>
<!-- node4&#45;&gt;node3 -->
<g id="edge10" class="edge">
<title>node4:&#45;&gt;node3:</title>
<path fill="none" stroke="BLACK" d="M2985.61,-323.76C2982.43,-323.5 2979.27,-323.25 2976.12,-323 2866.23,-314.24 2591.29,-294.09 2481.12,-290 2448.2,-288.78 132.33,-295.38 109.12,-272 81.42,-244.08 83.55,-124.88 109.12,-95 151.52,-45.47 322.88,-29.76 444.25,-24.92"/>
<polygon fill="BLACK" stroke="BLACK" points="444.5,-28.42 454.36,-24.54 444.24,-21.42 444.5,-28.42"/>
<text text-anchor="start" x="109.12" y="-180.8" font-family="Times New Roman,serif" font-size="14.00"> </text>
<text text-anchor="start" x="113.12" y="-180.8" font-family="Times New Roman,serif" font-size="10.00" fill="#336633">rdf:type</text>
<text text-anchor="start" x="145.12" y="-180.8" font-family="Times New Roman,serif" font-size="14.00"> </text>
</g>
<!-- node4&#45;&gt;node5 -->
<g id="edge3" class="edge">
<title>node4:&#45;&gt;node5:</title>
<path fill="none" stroke="BLACK" d="M3105.32,-322.97C3091.36,-317.87 3077.81,-311.93 3065.12,-305 3024.53,-282.84 2989.33,-241.89 2968.42,-213.94"/>
<polygon fill="BLACK" stroke="BLACK" points="2971.13,-211.71 2962.4,-205.71 2965.48,-215.85 2971.13,-211.71"/>
<text text-anchor="start" x="3065.12" y="-294.8" font-family="Times New Roman,serif" font-size="14.00"> </text>
<text text-anchor="start" x="3069.12" y="-294.8" font-family="Times New Roman,serif" font-size="10.00" fill="#336633">rdf:type</text>
<text text-anchor="start" x="3101.12" y="-294.8" font-family="Times New Roman,serif" font-size="14.00"> </text>
</g>
<!-- node2 -->
<g id="node6" class="node">
<title>node2</title>
<polygon fill="grey" stroke="transparent" points="3352.12,-247.5 3352.12,-266.5 5479.12,-266.5 5479.12,-247.5 3352.12,-247.5"/>
<text text-anchor="start" x="4272.62" y="-254.3" font-family="DejaVu Sans" font-weight="bold" font-size="14.00">fb258f6eee51f42bea2f3efaf11ed476ab3</text>
<g id="a_node6_8"><a xlink:href="fb258f6eee51f42bea2f3efaf11ed476ab3" xlink:title="&lt;TABLE&gt;">
<polygon fill="#eeeeee" stroke="transparent" points="3352.12,-232.5 3352.12,-247.5 5479.12,-247.5 5479.12,-232.5 3352.12,-232.5"/>
<text text-anchor="start" x="4330.12" y="-237.5" font-family="DejaVu Sans" font-size="10.00" fill="#6666ff">fb258f6eee51f42bea2f3efaf11ed476ab3</text>
</a>
</g>
<text text-anchor="start" x="3354.12" y="-219.3" font-family="DejaVu Sans" font-size="14.00">ns1:has_birthday_GID&#45;81257_Type&#45;55936</text>
<text text-anchor="start" x="3629.12" y="-219.3" font-family="DejaVu Sans" font-size="14.00">&quot;1955&#45;02&#45;03 01:15:59.250&quot;^^xsd:dateTime</text>
<text text-anchor="start" x="3354.12" y="-200.3" font-family="DejaVu Sans" font-size="14.00">ns1:has_date_GID&#45;80737_Type&#45;55936</text>
<text text-anchor="start" x="3629.12" y="-200.3" font-family="DejaVu Sans" font-size="14.00">&quot;17&#45;12&#45;2020&quot;^^xsd:dateTime</text>
<text text-anchor="start" x="3354.12" y="-181.3" font-family="DejaVu Sans" font-size="14.00">ns1:has_identifier_GID&#45;39085_Type&#45;55936</text>
<text text-anchor="start" x="3629.12" y="-181.3" font-family="DejaVu Sans" font-size="14.00">&quot;9BA8E802&#45;CAEE&#45;4818&#45;A353&#45;36F322771F37&quot;^^xsd:string</text>
<text text-anchor="start" x="3354.12" y="-162.3" font-family="DejaVu Sans" font-size="14.00">ns1:has_language_GID&#45;33764_Type&#45;55936</text>
<text text-anchor="start" x="3629.12" y="-162.3" font-family="DejaVu Sans" font-size="14.00">&quot;{&quot;id&quot;:&quot;45562&quot;,&quot;kind&quot;:&quot;CONCEPT&quot;,&quot;probability&quot;:1.0,&quot;name&quot;:{&quot;strings&quot;:{&quot;eng&quot;:[&quot;unknown&quot;]}},&quot;description&quot;:{&quot;strings&quot;:{&quot;eng&quot;:[&quot;an unknown and unexplored region&quot;]}},&quot;metadata&quot;:{&quot;summary&quot;:&quot;&quot;,&quot;lemma&quot;:&quot;unknown&quot;}}&quot;^^xsd:Concept</text>
<text text-anchor="start" x="3354.12" y="-143.3" font-family="DejaVu Sans" font-size="14.00">ns1:has_sex_GID&#45;27646_Type&#45;55936</text>
<text text-anchor="start" x="3629.12" y="-143.3" font-family="DejaVu Sans" font-size="14.00">&quot;{&quot;id&quot;:&quot;6496&quot;,&quot;kind&quot;:&quot;CONCEPT&quot;,&quot;probability&quot;:0.6000000238418579,&quot;name&quot;:{&quot;strings&quot;:{&quot;eng&quot;:[&quot;male&quot;]}},&quot;description&quot;:{&quot;strings&quot;:{&quot;eng&quot;:[&quot;an animal that produces gametes (spermatozoa) that can fertilize female gametes (ova)&quot;]}},&quot;metadata&quot;:{&quot;summary&quot;:&quot;&quot;,&quot;lemma&quot;:&quot;male&quot;}}&quot;^^xsd:Concept</text>
<text text-anchor="start" x="3354.12" y="-124.3" font-family="DejaVu Sans" font-size="14.00">ns1:has_source_GID&#45;35781_Type&#45;55936</text>
<text text-anchor="start" x="3629.12" y="-124.3" font-family="DejaVu Sans" font-size="14.00">&quot;EMRBots&quot;^^xsd:string</text>
<text text-anchor="start" x="3354.12" y="-105.3" font-family="DejaVu Sans" font-size="14.00">ns1:has_url_GID&#45;34123_Type&#45;55936</text>
<text text-anchor="start" x="3629.12" y="-105.3" font-family="DejaVu Sans" font-size="14.00">&quot;http://www.emrbots.org&quot;^^xsd:string</text>
<polygon fill="none" stroke="#666666" points="3350.62,-99 3350.62,-268 5479.62,-268 5479.62,-99 3350.62,-99"/>
</g>
<!-- node4&#45;&gt;node2 -->
<g id="edge15" class="edge">
<title>node4:&#45;&gt;node2:</title>
<path fill="none" stroke="BLACK" d="M3505.49,-322.99C3598.03,-308.9 3713.19,-291.37 3830.14,-273.57"/>
<polygon fill="BLACK" stroke="BLACK" points="3831.01,-276.97 3840.36,-272.01 3829.95,-270.05 3831.01,-276.97"/>
<text text-anchor="start" x="3695.12" y="-294.8" font-family="Times New Roman,serif" font-size="14.00"> </text>
<text text-anchor="start" x="3699.12" y="-294.8" font-family="Times New Roman,serif" font-size="10.00" fill="#336633">ns1:has_diagnosis_GID&#45;765_Type&#45;55936</text>
<text text-anchor="start" x="3864.12" y="-294.8" font-family="Times New Roman,serif" font-size="14.00"> </text>
</g>
<!-- node4&#45;&gt;node6 -->
<g id="edge7" class="edge">
<title>node4:&#45;&gt;node6:</title>
<path fill="none" stroke="BLACK" d="M3624.73,-353.15C4217.51,-350.91 5433.32,-338.22 5497.12,-272 5551.71,-215.35 5551.86,-151.5 5497.12,-95 5458.89,-55.54 3772.16,-30.36 3325.64,-24.38"/>
<polygon fill="BLACK" stroke="BLACK" points="3325.37,-20.88 3315.32,-24.24 3325.27,-27.88 3325.37,-20.88"/>
<text text-anchor="start" x="5537.12" y="-180.8" font-family="Times New Roman,serif" font-size="14.00"> </text>
<text text-anchor="start" x="5541.12" y="-180.8" font-family="Times New Roman,serif" font-size="10.00" fill="#336633">rdf:type</text>
<text text-anchor="start" x="5573.12" y="-180.8" font-family="Times New Roman,serif" font-size="14.00"> </text>
</g>
<!-- node4&#45;&gt;node7 -->
<g id="edge14" class="edge">
<title>node4:&#45;&gt;node7:</title>
<path fill="none" stroke="BLACK" d="M3288.1,-322.9C3271.03,-292.21 3244.91,-245.24 3227.92,-214.7"/>
<polygon fill="BLACK" stroke="BLACK" points="3230.88,-212.82 3222.96,-205.78 3224.76,-216.22 3230.88,-212.82"/>
<text text-anchor="start" x="3277.12" y="-294.8" font-family="Times New Roman,serif" font-size="14.00"> </text>
<text text-anchor="start" x="3281.12" y="-294.8" font-family="Times New Roman,serif" font-size="10.00" fill="#336633">rdf:type</text>
<text text-anchor="start" x="3313.12" y="-294.8" font-family="Times New Roman,serif" font-size="14.00"> </text>
</g>
<!-- node2&#45;&gt;node3 -->
<g id="edge16" class="edge">
<title>node2:&#45;&gt;node3:</title>
<path fill="none" stroke="BLACK" d="M3342.31,-95.52C3339.24,-95.35 3336.18,-95.17 3333.12,-95 3086.28,-81.03 3024.2,-85.88 2777.12,-77 2608.21,-70.93 2566.07,-67.14 2397.12,-62 1757.99,-42.57 992.79,-29.56 696.19,-24.9"/>
<polygon fill="BLACK" stroke="BLACK" points="695.89,-21.4 685.83,-24.74 695.78,-28.4 695.89,-21.4"/>
<text text-anchor="start" x="2777.12" y="-66.8" font-family="Times New Roman,serif" font-size="14.00"> </text>
<text text-anchor="start" x="2781.12" y="-66.8" font-family="Times New Roman,serif" font-size="10.00" fill="#336633">rdf:type</text>
<text text-anchor="start" x="2813.12" y="-66.8" font-family="Times New Roman,serif" font-size="14.00"> </text>
</g>
<!-- node2&#45;&gt;node6 -->
<g id="edge4" class="edge">
<title>node2:&#45;&gt;node6:</title>
<path fill="none" stroke="BLACK" d="M3775.57,-94.99C3692.01,-83.77 3607.53,-72.53 3527.12,-62 3460.1,-53.22 3384.84,-43.72 3325.38,-36.29"/>
<polygon fill="BLACK" stroke="BLACK" points="3325.58,-32.79 3315.23,-35.02 3324.71,-39.73 3325.58,-32.79"/>
<text text-anchor="start" x="3623.12" y="-66.8" font-family="Times New Roman,serif" font-size="14.00"> </text>
<text text-anchor="start" x="3627.12" y="-66.8" font-family="Times New Roman,serif" font-size="10.00" fill="#336633">rdf:type</text>
<text text-anchor="start" x="3659.12" y="-66.8" font-family="Times New Roman,serif" font-size="14.00"> </text>
</g>
<!-- node2&#45;&gt;node8 -->
<g id="edge13" class="edge">
<title>node2:&#45;&gt;node8:</title>
<path fill="none" stroke="BLACK" d="M3342.3,-95.62C3339.24,-95.41 3336.18,-95.21 3333.12,-95 2896.58,-65.56 2378.96,-40.39 2137.25,-29.2"/>
<polygon fill="BLACK" stroke="BLACK" points="2137.16,-25.69 2127.01,-28.72 2136.84,-32.68 2137.16,-25.69"/>
<text text-anchor="start" x="3042.12" y="-66.8" font-family="Times New Roman,serif" font-size="14.00"> </text>
<text text-anchor="start" x="3046.12" y="-66.8" font-family="Times New Roman,serif" font-size="10.00" fill="#336633">rdf:type</text>
<text text-anchor="start" x="3078.12" y="-66.8" font-family="Times New Roman,serif" font-size="14.00"> </text>
</g>
</g>
</svg>
